<svg xmlns="http://www.w3.org/2000/svg" version="1.1" xmlns:xlink="http://www.w3.org/1999/xlink" xmlns:svgjs="http://svgjs.dev/svgjs" width="1500" height="1500" viewBox="0 0 1500 1500"><rect width="1500" height="1500" fill="#77d4fc"></rect><g transform="matrix(0.6666666666666666,0,0,0.6666666666666666,249.78425655976667,249.78425655976673)"><svg viewBox="0 0 343 343" data-background-color="#77d4fc" preserveAspectRatio="xMidYMid meet" height="1500" width="1500" xmlns="http://www.w3.org/2000/svg" xmlns:xlink="http://www.w3.org/1999/xlink"><g id="tight-bounds" transform="matrix(1,0,0,1,0.0740000000000407,0.07400000000001228)"><svg viewBox="0 0 342.85155851775386 342.85155851775386" height="342.85155851775386" width="342.85155851775386"><g><svg></svg></g><g><svg viewBox="0 0 342.85155851775386 342.85155851775386" height="342.85155851775386" width="342.85155851775386"><g><path d="M0 171.426c0-94.676 76.75-171.426 171.426-171.426 94.676 0 171.426 76.75 171.426 171.426 0 94.676-76.75 171.426-171.426 171.426-94.676 0-171.426-76.75-171.426-171.426zM171.426 339.83c93.007 0 168.404-75.397 168.404-168.404 0-93.007-75.397-168.404-168.404-168.405-93.007 0-168.404 75.397-168.405 168.405 0 93.007 75.397 168.404 168.405 168.404z" data-fill-palette-color="tertiary" fill="#000000" stroke="transparent"></path><ellipse rx="164.56874808852186" ry="164.56874808852186" cx="171.42577925887693" cy="171.42577925887693" fill="#000000" stroke="transparent" stroke-width="0" fill-opacity="1" data-fill-palette-color="tertiary"></ellipse></g><g transform="matrix(1,0,0,1,64.84655864529837,127.56716208137132)"><svg viewBox="0 0 213.1584412271571 87.71723435501121" height="87.71723435501121" width="213.1584412271571"><g><svg viewBox="0 0 213.1584412271571 87.71723435501121" height="87.71723435501121" width="213.1584412271571"><g><svg viewBox="0 0 213.1584412271571 87.71723435501121" height="87.71723435501121" width="213.1584412271571"><g transform="matrix(1,0,0,1,0,54.21276987231048)"><svg viewBox="0 0 213.1584412271571 33.50446448270073" height="33.50446448270073" width="213.1584412271571"><g id="textblocktransform"><svg viewBox="0 0 213.1584412271571 33.50446448270073" height="33.50446448270073" width="213.1584412271571" id="textblock"><g><svg viewBox="0 0 213.1584412271571 33.50446448270073" height="33.50446448270073" width="213.1584412271571"><g transform="matrix(1,0,0,1,0,0)"><svg width="213.1584412271571" viewBox="0.2 -38.28 246.63000000000002 38.77" height="33.50446448270073" data-palette-color="#77d4fc"><path d="M8.96 0L8.96-2.69Q11.72-2.69 12.62-3.14 13.53-3.59 13.79-4.1 14.06-4.61 14.06-5.35L14.06-5.35 14.06-33.79 9.06-33.79Q5.03-33.79 4.44-29.52L4.44-29.52 3.74-24.56 0.2-24.58 1.27-36.62 32.35-36.62 33.42-24.58 29.88-24.56 29.17-29.52Q28.91-31.49 28.13-32.32L28.13-32.32Q26.71-33.79 24.56-33.79L24.56-33.79 19.56-33.79 19.56-5.35Q19.56-3.81 20.57-3.25 21.58-2.69 24.66-2.69L24.66-2.69 24.66 0 8.96 0ZM53.71-4L53.71-4Q50.66 0.49 45.55 0.49L45.55 0.49Q41.87 0.49 39.82-1.78 37.77-4.05 37.77-8.57L37.77-8.57 37.77-18.7Q37.77-20.46 37.46-21 37.16-21.53 35.81-21.53L35.81-21.53 35.18-21.53 35.18-24.22Q37.42-24.22 38.44-24.57 39.45-24.93 39.89-25.09 40.33-25.24 40.96-25.24L40.96-25.24Q42.21-25.24 42.62-24.48 43.04-23.71 43.04-22.02L43.04-22.02 43.04-8.4Q43.04-5.71 43.6-4.74L43.6-4.74Q44.68-2.86 47.29-2.86L47.29-2.86Q49.05-2.86 50.75-4.25 52.46-5.64 53.17-7.5L53.17-7.5 53.17-18.7Q53.12-20.51 52.83-21.02 52.54-21.53 51.19-21.53L51.19-21.53 49.8-21.53 49.8-24.22Q52.12-24.22 53.38-24.57 54.64-24.93 55.17-25.09 55.71-25.24 56.35-25.24L56.35-25.24Q57.59-25.24 58.02-24.51 58.44-23.78 58.44-22.12L58.44-22.12 58.44-6.49Q58.44-4.13 58.66-3.56L58.66-3.56Q59.06-2.49 60.62-2.49L60.62-2.49Q61.45-2.49 62.03-2.76L62.03-2.76 62.03-0.39Q60.86 0.49 58.84 0.49L58.84 0.49Q54.59 0.49 53.71-4ZM79.8-21.58L79.8-21.58Q75.8-21.58 73.31-19.09L73.31-19.09 73.31-5.25Q73.31-3.74 73.8-3.34L73.8-3.34Q74.65-2.69 77.02-2.69L77.02-2.69 77.02 0 64.62 0 64.62-2.69Q66.72-2.69 67.26-3.11 67.79-3.54 67.91-4.03 68.04-4.52 68.04-5.25L68.04-5.25 68.04-18.55Q68.04-20.31 67.73-20.85 67.43-21.39 66.06-21.39L66.06-21.39 64.57-21.39 64.57-24.07Q66.87-24.07 68.17-24.43 69.48-24.78 70.03-24.94 70.58-25.1 71.21-25.1L71.21-25.1Q72.5-25.1 72.91-24.35 73.31-23.61 73.31-21.97L73.31-21.97Q75.92-24.17 79.37-24.95L79.37-24.95Q80.51-25.22 81.61-25.22L81.61-25.22Q89.52-25.22 89.52-14.75L89.52-14.75 89.52-5.3Q89.52-3.69 89.99-3.19 90.45-2.69 92.52-2.69L92.52-2.69 92.52 0 80.98 0 80.98-2.69Q83.2-2.69 83.65-3.14 84.1-3.59 84.17-4.08 84.25-4.57 84.25-5.3L84.25-5.3 84.25-14.43Q84.25-17.82 83.61-19.09L83.61-19.09Q82.37-21.58 79.8-21.58ZM118.91-11.25L118.91-11.25 101.97-11.25Q101.97-7.06 103.96-4.76 105.95-2.47 108.88-2.47L108.88-2.47Q112.81-2.47 114.52-5.71L114.52-5.71 118.16-5.74Q117.6-3.13 114.95-1.32 112.3 0.49 107.81 0.49 103.31 0.49 100.04-2.29L100.04-2.29Q96.14-5.64 96.14-11.72 96.14-17.8 99.25-21.52 102.36-25.24 108.17-25.24L108.17-25.24Q115.81-25.24 118.06-19.09L118.06-19.09Q118.96-16.63 118.96-14.43 118.96-12.23 118.91-11.25ZM113.27-14.92L113.27-14.92Q113.27-22.39 108.2-22.39L108.2-22.39Q105.34-22.39 103.74-20.17 102.14-17.94 101.99-14.01L101.99-14.01 113.25-14.01Q113.27-14.48 113.27-14.92ZM146.81 0L146.81-2.69Q149.57-2.69 150.48-3.14 151.38-3.59 151.65-4.1 151.92-4.61 151.92-5.35L151.92-5.35 151.92-33.79 146.91-33.79Q142.88-33.79 142.3-29.52L142.3-29.52 141.59-24.56 138.05-24.58 139.12-36.62 170.2-36.62 171.28-24.58 167.74-24.56 167.03-29.52Q166.76-31.49 165.98-32.32L165.98-32.32Q164.56-33.79 162.41-33.79L162.41-33.79 157.41-33.79 157.41-5.35Q157.41-3.81 158.42-3.25 159.44-2.69 162.51-2.69L162.51-2.69 162.51 0 146.81 0ZM194.78-16.8L194.78-5.83Q194.78-2.93 195.93-2.93L195.93-2.93Q197.03-2.93 197.54-3.67 198.06-4.42 198.06-6.37L198.06-6.37 200.62-6.37Q200.64-6.05 200.64-5.37L200.64-5.37Q200.64-3.17 199.55-1.56L199.55-1.56Q198.2 0.49 195.27 0.49L195.27 0.49Q193.37 0.49 192.03-0.59 190.68-1.66 190.17-3.42L190.17-3.42Q186.63 0.49 181.21 0.49L181.21 0.49Q178.23 0.49 176.02-1.26 173.81-3 173.81-6.13L173.81-6.13Q173.81-11.55 181.82-14.14L181.82-14.14Q186.9-15.75 187.9-16.37 188.9-16.99 189.21-17.64 189.51-18.29 189.51-19.09L189.51-19.09Q189.51-20.53 188.1-21.5 186.68-22.46 184.41-22.46 182.14-22.46 180.4-21.24L180.4-21.24Q181.63-20.34 181.63-18.92 181.63-17.5 180.69-16.65 179.75-15.8 178.42-15.8 177.08-15.8 176.22-16.6 175.35-17.41 175.35-18.85L175.35-18.85Q175.35-21.7 178.23-23.47 181.11-25.24 185.24-25.24L185.24-25.24Q192.61-25.24 194.25-20.46L194.25-20.46Q194.78-18.87 194.78-16.8L194.78-16.8ZM184.02-11.91Q181.87-10.99 180.8-9.53 179.72-8.08 179.72-6.37 179.72-4.66 180.65-3.78 181.58-2.91 182.97-2.91L182.97-2.91Q185.8-2.91 187.66-4.9 189.51-6.88 189.51-10.45L189.51-10.45 189.51-14.21Q187.95-13.4 186.2-12.74 184.46-12.08 184.02-11.91L184.02-11.91ZM201.79 0L201.79-2.69Q203.91-2.69 204.71-3.27 205.5-3.86 205.5-5.3L205.5-5.3 205.5-31.74Q205.5-33.5 205.19-34.03 204.89-34.57 203.52-34.57L203.52-34.57 201.55-34.57 201.55-37.26Q204.01-37.26 205.4-37.61 206.79-37.96 207.39-38.12 207.99-38.28 208.65-38.28L208.65-38.28Q209.92-38.28 210.35-37.55 210.77-36.82 210.77-35.16L210.77-35.16 210.77-5.3Q210.77-3.78 211.42-3.23 212.07-2.69 214.44-2.69L214.44-2.69 214.44 0 201.79 0ZM242.61-3.2L242.61-3.2Q244.29-3.2 244.29-6.79L244.29-6.79 246.66-6.79Q246.83-6.01 246.83-5.41 246.83-4.81 246.81-4.08 246.78-3.34 246.27-2.2L246.27-2.2Q245 0.49 241.47 0.49 237.94 0.49 235.8-3.54L235.8-3.54Q235.19-4.69 234.6-5.86L234.6-5.86Q233.01-9.08 231.96-10.25L231.96-10.25Q230.16-12.23 227.59-12.23L227.59-12.23Q227.4-12.23 227.2-12.23 227.01-12.23 226.81-12.21L226.81-12.21 226.81-5.3Q226.81-3.78 227.46-3.23 228.11-2.69 230.45-2.69L230.45-2.69 230.45 0 217.83 0 217.83-2.69Q219.95-2.69 220.74-3.27 221.54-3.86 221.54-5.3L221.54-5.3 221.54-31.74Q221.54-33.5 221.23-34.03 220.93-34.57 219.56-34.57L219.56-34.57 217.58-34.57 217.58-37.26Q220.05-37.26 221.44-37.61 222.83-37.96 223.43-38.12 224.03-38.28 224.69-38.28L224.69-38.28Q225.96-38.28 226.38-37.55 226.81-36.82 226.81-35.16L226.81-35.16 226.81-14.87 228.06-14.87Q232.08-17.7 235.09-20.95L235.09-20.95Q235.58-21.46 235.82-21.83L235.82-21.83 231.6-21.83 231.6-24.76 245.07-24.76 245.07-21.83Q240.53-21.7 235.77-17.48L235.77-17.48Q234.33-16.24 232.89-14.82L232.89-14.82Q236.89-13.31 239.38-8.06L239.38-8.06Q239.99-6.74 240.51-5.65 241.02-4.57 241.51-3.88 242-3.2 242.61-3.2Z" opacity="1" transform="matrix(1,0,0,1,0,0)" fill="#77d4fc" class="wordmark-text-0" data-fill-palette-color="quaternary" id="text-0"></path></svg></g></svg></g></svg></g></svg></g><g transform="matrix(1,0,0,1,92.99024683414926,0)"><svg viewBox="0 0 27.177947558858595 46.303169915092425" height="46.303169915092425" width="27.177947558858595"><g><svg xmlns="http://www.w3.org/2000/svg" xmlns:xlink="http://www.w3.org/1999/xlink" version="1.1" x="0" y="0" viewBox="48.5 -22.5 54 92" style="enable-background:new 26 -26 100 100;" xml:space="preserve" height="46.303169915092425" width="27.177947558858595" class="icon-icon-0" data-fill-palette-color="quaternary" id="icon-0"><path d="M82.5 15.5V11.5L102.5 19.5V23.5zM82.5 3.5L102.5 11.5V15.5L82.5 7.5zM82.5-4.5L102.5 3.5V7.5L82.5-0.5zM82.5-12.5L102.5-4.5V-0.5L82.5-8.5zM58.5 11.5L78.5 19.5V23.5L58.5 15.5zM58.5 3.5L78.5 11.5V15.5L58.5 7.5zM58.5-12.5L78.5-4.5V7.5L58.5-0.5zM48.5 45.5H50.5V-15.1C49.3-15.8 48.5-17.1 48.5-18.5 48.5-20.7 50.3-22.5 52.5-22.5S56.5-20.7 56.5-18.5C56.5-17 55.7-15.7 54.5-15.1V45.5H56.5V69.5H48.5z" fill="#77d4fc" data-fill-palette-color="quaternary"></path></svg></g></svg></g><g></g></svg></g></svg></g></svg></g></svg></g><defs></defs></svg><rect width="342.85155851775386" height="342.85155851775386" fill="none" stroke="none" visibility="hidden"></rect></g></svg></g></svg>